<?xml version="1.0" standalone="no"?><!-- Generator: Gravit.io --><svg xmlns="http://www.w3.org/2000/svg" xmlns:xlink="http://www.w3.org/1999/xlink" style="isolation:isolate" viewBox="0 0 600 600" width="600" height="600"><defs><clipPath id="_clipPath_4T5ZgkVXSkEbXswS5TKgKxPg4aCuESa4"><rect width="600" height="600"/></clipPath></defs><g clip-path="url(#_clipPath_4T5ZgkVXSkEbXswS5TKgKxPg4aCuESa4)"><line x1="333.041" y1="159.61" x2="544" y2="143" vector-effect="non-scaling-stroke" stroke-width="5" stroke="rgb(114,210,204)" stroke-linejoin="miter" stroke-linecap="square" stroke-miterlimit="3"/><line x1="333.041" y1="179.484" x2="544" y2="190.61" vector-effect="non-scaling-stroke" stroke-width="5" stroke="rgb(114,210,204)" stroke-linejoin="miter" stroke-linecap="square" stroke-miterlimit="3"/><path d=" M 419.43 590.926 L 299.269 590.736 L 179.107 590.546 C 173.588 590.537 166.366 586.985 162.99 582.62 L 88.309 486.057 L 13.628 389.495 C 10.251 385.129 8.498 377.214 9.715 371.83 L 36.917 251.515 L 64.119 131.199 C 65.336 125.816 70.345 119.469 75.299 117.035 L 183.792 63.724 L 292.286 10.413 C 297.239 7.979 305.275 7.994 310.219 10.447 L 418.335 64.095 L 526.451 117.742 C 531.395 120.195 536.368 126.564 537.549 131.955 L 563.929 252.348 L 590.309 372.741 C 591.49 378.132 589.689 386.039 586.289 390.386 L 510.94 486.725 L 435.591 583.065 C 432.19 587.412 424.949 590.935 419.43 590.926 Z " fill="none" vector-effect="non-scaling-stroke" stroke-width="15" stroke="rgb(0,125,116)" stroke-linejoin="miter" stroke-linecap="square" stroke-miterlimit="3"/><path d=" M 354.363 271.858 L 254.088 271.858 L 261.609 218.555 L 346.37 218.555 L 354.363 271.858 Z " fill="rgb(183,238,234)" vector-effect="non-scaling-stroke" stroke-width="4" stroke="rgb(31,175,165)" stroke-linejoin="miter" stroke-linecap="square" stroke-miterlimit="3"/><path d=" M 377.957 437.088 L 230.493 437.088 L 242.842 359.424 L 365.648 359.424 L 377.957 437.088 Z " fill="rgb(183,238,234)" vector-effect="non-scaling-stroke" stroke-width="4" stroke="rgb(31,175,165)" stroke-linejoin="miter" stroke-linecap="square" stroke-miterlimit="3"/><path d=" M 389.611 509.138 L 217.856 509.138 L 261.098 218.555 L 346.37 218.555 L 389.611 509.138 Z " fill="none" vector-effect="non-scaling-stroke" stroke-width="7" stroke="rgb(31,175,165)" stroke-linejoin="miter" stroke-linecap="square" stroke-miterlimit="3"/><rect x="242.842" y="192.61" width="122.806" height="25.945" transform="matrix(1,0,0,1,0,0)" fill="rgb(114,210,204)" vector-effect="non-scaling-stroke" stroke-width="7" stroke="rgb(31,175,165)" stroke-linejoin="miter" stroke-linecap="square" stroke-miterlimit="3"/><rect x="277.886" y="147.639" width="52.755" height="44.971" transform="matrix(1,0,0,1,0,0)" fill="none" vector-effect="non-scaling-stroke" stroke-width="7" stroke="rgb(31,175,165)" stroke-linejoin="miter" stroke-linecap="square" stroke-miterlimit="3"/><polygon points="346.881,147.639,261.609,147.639,304.245,90.341" fill="rgb(114,210,204)" vector-effect="non-scaling-stroke" stroke-width="7" stroke="rgb(31,175,165)" stroke-linejoin="miter" stroke-linecap="square" stroke-miterlimit="3"/><path d=" M 433.675 587.501 L 174.457 587.501 L 117.438 516.718 Q 243.162 495.93 313.073 497.056 Q 382.984 498.182 490.029 516.718 L 433.675 587.501 Z " fill="rgb(0,125,116)"/><path d=" M 285.712 303.685 Q 287.074 285.692 303.514 285.692 Q 319.955 285.692 321.756 303.685 L 321.756 342.711 L 285.712 342.711 L 285.712 303.685 Z " fill="rgb(183,238,234)" vector-effect="non-scaling-stroke" stroke-width="3" stroke="rgb(31,175,165)" stroke-linejoin="miter" stroke-linecap="square" stroke-miterlimit="3"/><path d=" M 240.723 524.247 L 240.723 524.247 L 237.213 523.809 L 237.213 523.809 Q 234.492 523.809 232.869 525.081 L 232.869 525.081 L 232.869 525.081 Q 231.245 526.354 231.245 530.127 L 231.245 530.127 L 231.245 534.076 L 240.284 534.076 L 240.284 534.076 Q 241.513 534.076 242.302 534.866 L 242.302 534.866 L 242.302 534.866 Q 243.092 535.656 243.092 536.884 L 243.092 536.884 L 243.092 536.884 Q 243.092 538.113 242.259 538.902 L 242.259 538.902 L 242.259 538.902 Q 241.425 539.692 240.284 539.692 L 240.284 539.692 L 231.245 539.692 L 231.245 567.862 L 231.245 567.862 Q 231.245 569.178 230.324 570.143 L 230.324 570.143 L 230.324 570.143 Q 229.402 571.108 227.998 571.108 L 227.998 571.108 L 227.998 571.108 Q 226.594 571.108 225.673 570.143 L 225.673 570.143 L 225.673 570.143 Q 224.751 569.178 224.751 567.862 L 224.751 567.862 L 224.751 539.692 L 220.452 539.692 L 220.452 539.692 Q 219.223 539.692 218.433 538.902 L 218.433 538.902 L 218.433 538.902 Q 217.643 538.113 217.643 536.884 L 217.643 536.884 L 217.643 536.884 Q 217.643 535.656 218.477 534.866 L 218.477 534.866 L 218.477 534.866 Q 219.311 534.076 220.452 534.076 L 220.452 534.076 L 224.751 534.076 L 224.751 529.864 L 224.751 529.864 Q 224.751 523.633 228.262 520.299 L 228.262 520.299 L 228.262 520.299 Q 231.158 517.578 235.458 517.578 L 235.458 517.578 L 235.458 517.578 Q 238.792 517.578 241.776 518.982 L 241.776 518.982 L 241.776 518.982 Q 243.443 519.86 243.443 521.176 L 243.443 521.176 L 243.443 521.176 Q 243.443 522.492 242.653 523.37 L 242.653 523.37 L 242.653 523.37 Q 241.864 524.247 240.723 524.247 Z  M 250.639 535.919 L 250.639 535.919 L 250.639 535.919 Q 256.694 533.286 263.188 533.374 L 263.188 533.374 L 263.188 533.374 Q 270.472 533.374 274.508 537.849 L 274.508 537.849 L 274.508 537.849 Q 278.106 541.711 278.194 547.502 L 278.194 547.502 L 278.194 567.862 L 278.194 567.862 Q 278.194 569.178 277.185 570.143 L 277.185 570.143 L 277.185 570.143 Q 276.176 571.108 274.772 571.108 L 274.772 571.108 L 274.772 571.108 Q 273.455 571.108 272.49 570.143 L 272.49 570.143 L 272.49 570.143 Q 271.525 569.178 271.525 567.862 L 271.525 567.862 L 271.525 566.019 L 271.525 566.019 Q 269.594 568.037 266.347 569.748 L 266.347 569.748 L 266.347 569.748 Q 263.1 571.459 258.098 571.459 L 258.098 571.459 L 258.098 571.459 Q 253.096 571.459 249.762 568.564 L 249.762 568.564 L 249.762 568.564 Q 246.339 565.58 246.339 560.753 L 246.339 560.753 L 246.339 560.753 Q 246.339 555.4 250.376 552.329 L 250.376 552.329 L 250.376 552.329 Q 254.764 548.994 262.837 549.082 L 262.837 549.082 L 271.525 549.082 L 271.525 548.468 L 271.525 548.468 Q 271.525 543.641 269.199 541.623 L 269.199 541.623 L 269.199 541.623 Q 266.874 539.604 261.959 539.604 L 261.959 539.604 L 261.959 539.604 Q 257.835 539.604 252.394 541.272 L 252.394 541.272 L 252.394 541.272 Q 251.868 541.447 251.122 541.447 L 251.122 541.447 L 251.122 541.447 Q 250.376 541.447 249.586 540.701 L 249.586 540.701 L 249.586 540.701 Q 248.796 539.956 248.752 538.332 L 248.752 538.332 L 248.752 538.332 Q 248.708 536.709 250.639 535.919 Z  M 252.921 559.964 L 252.921 559.964 L 252.921 559.964 Q 252.921 565.755 260.555 565.668 L 260.555 565.668 L 260.555 565.668 Q 263.89 565.668 266.83 564.044 L 266.83 564.044 L 266.83 564.044 Q 269.77 562.421 271.525 560.402 L 271.525 560.402 L 271.525 554.347 L 263.802 554.347 L 263.802 554.347 Q 258.712 554.347 255.817 555.62 L 255.817 555.62 L 255.817 555.62 Q 252.921 556.892 252.921 559.964 Z  M 295.657 537.06 L 295.657 540.131 L 295.657 540.131 Q 300.747 533.374 306.978 533.374 L 306.978 533.374 L 307.329 533.374 L 307.329 533.374 Q 308.645 533.374 309.566 534.295 L 309.566 534.295 L 309.566 534.295 Q 310.488 535.217 310.488 536.621 L 310.488 536.621 L 310.488 536.621 Q 310.488 538.025 309.522 538.859 L 309.522 538.859 L 309.522 538.859 Q 308.557 539.692 307.153 539.692 L 307.153 539.692 L 306.802 539.692 L 306.802 539.692 Q 303.204 539.692 300.396 541.447 L 300.396 541.447 L 300.396 541.447 Q 297.588 543.202 295.657 546.011 L 295.657 546.011 L 295.657 567.862 L 295.657 567.862 Q 295.657 569.178 294.692 570.143 L 294.692 570.143 L 294.692 570.143 Q 293.727 571.108 292.41 571.108 L 292.41 571.108 L 292.41 571.108 Q 291.094 571.108 290.129 570.143 L 290.129 570.143 L 290.129 570.143 Q 289.163 569.178 289.163 567.862 L 289.163 567.862 L 289.163 537.06 L 289.163 537.06 Q 289.163 535.743 290.085 534.734 L 290.085 534.734 L 290.085 534.734 Q 291.006 533.725 292.41 533.725 L 292.41 533.725 L 292.41 533.725 Q 293.727 533.725 294.692 534.69 L 294.692 534.69 L 294.692 534.69 Q 295.657 535.656 295.657 537.06 L 295.657 537.06 Z  M 333.041 533.374 L 333.041 533.374 L 333.041 533.374 Q 341.377 533.374 346.467 538.639 L 346.467 538.639 L 346.467 538.639 Q 351.557 543.992 351.381 552.417 L 351.381 552.417 L 351.381 552.417 Q 351.381 560.929 346.467 566.194 L 346.467 566.194 L 346.467 566.194 Q 341.377 571.459 333.041 571.459 L 333.041 571.459 L 333.041 571.459 Q 324.616 571.459 319.702 566.194 L 319.702 566.194 L 319.702 566.194 Q 314.612 560.929 314.612 552.417 L 314.612 552.417 L 314.612 552.417 Q 314.612 543.817 319.702 538.639 L 319.702 538.639 L 319.702 538.639 Q 324.616 533.374 333.041 533.374 Z  M 325.011 562.552 L 325.011 562.552 L 325.011 562.552 Q 326.722 564.088 328.872 564.79 L 328.872 564.79 L 328.872 564.79 Q 331.022 565.492 333.041 565.492 L 333.041 565.492 L 333.041 565.492 Q 335.059 565.492 337.165 564.79 L 337.165 564.79 L 337.165 564.79 Q 339.271 564.088 341.026 562.508 L 341.026 562.508 L 341.026 562.508 Q 344.887 558.998 344.887 552.329 L 344.887 552.329 L 344.887 552.329 Q 344.887 545.835 341.026 542.237 L 341.026 542.237 L 341.026 542.237 Q 337.779 539.253 333.041 539.341 L 333.041 539.341 L 333.041 539.341 Q 325.23 539.341 322.247 546.362 L 322.247 546.362 L 322.247 546.362 Q 321.194 548.906 321.194 552.417 L 321.194 552.417 L 321.194 552.417 Q 321.194 555.927 322.247 558.472 L 322.247 558.472 L 322.247 558.472 Q 323.3 561.017 325.011 562.552 Z  M 372.179 565.404 L 372.179 565.404 L 372.179 565.404 Q 380.165 565.404 380.077 560.402 L 380.077 560.402 L 380.077 560.402 Q 380.077 558.823 378.497 557.945 L 378.497 557.945 L 378.497 557.945 Q 376.918 557.068 374.548 556.453 L 374.548 556.453 L 374.548 556.453 Q 372.179 555.839 369.371 555.137 L 369.371 555.137 L 369.371 555.137 Q 366.563 554.435 364.106 553.206 L 364.106 553.206 L 364.106 553.206 Q 361.649 551.978 360.069 550.003 L 360.069 550.003 L 360.069 550.003 Q 358.489 548.029 358.489 545.133 L 358.489 545.133 L 358.489 545.133 Q 358.489 542.237 359.367 540.175 L 359.367 540.175 L 359.367 540.175 Q 360.245 538.113 362 536.621 L 362 536.621 L 362 536.621 Q 365.773 533.374 372.53 533.374 L 372.53 533.374 L 372.53 533.374 Q 377.971 533.374 382.973 535.129 L 382.973 535.129 L 382.973 535.129 Q 383.938 535.48 384.509 536.314 L 384.509 536.314 L 384.509 536.314 Q 385.079 537.147 385.079 538.069 L 385.079 538.069 L 385.079 538.069 Q 385.079 538.99 384.245 539.868 L 384.245 539.868 L 384.245 539.868 Q 383.412 540.745 382.622 540.745 L 382.622 540.745 L 382.622 540.745 Q 381.832 540.745 380.691 540.394 L 380.691 540.394 L 380.691 540.394 Q 377.269 539.341 373.144 539.341 L 373.144 539.341 L 373.144 539.341 Q 369.02 539.341 366.914 540.745 L 366.914 540.745 L 366.914 540.745 Q 364.808 542.149 364.808 544.212 L 364.808 544.212 L 364.808 544.212 Q 364.808 546.274 366.387 547.195 L 366.387 547.195 L 366.387 547.195 Q 367.967 548.117 370.38 548.819 L 370.38 548.819 L 370.38 548.819 Q 372.793 549.521 375.645 550.135 L 375.645 550.135 L 375.645 550.135 Q 378.497 550.749 380.867 551.978 L 380.867 551.978 L 380.867 551.978 Q 386.483 554.874 386.483 560.841 L 386.483 560.841 L 386.483 560.841 Q 386.483 565.492 382.973 568.3 L 382.973 568.3 L 382.973 568.3 Q 379.287 571.459 372.53 571.459 L 372.53 571.459 L 372.53 571.459 Q 365.334 571.459 359.542 568.213 L 359.542 568.213 L 359.542 568.213 Q 358.314 567.335 358.27 566.063 L 358.27 566.063 L 358.27 566.063 Q 358.226 564.79 359.06 563.869 L 359.06 563.869 L 359.06 563.869 Q 359.893 562.947 360.771 562.947 L 360.771 562.947 L 360.771 562.947 Q 361.649 562.947 363.053 563.562 L 363.053 563.562 L 363.053 563.562 Q 367.177 565.404 372.179 565.404 Z " fill-rule="evenodd" fill="rgb(255,255,255)"/></g></svg>
